<?xml version="1.0" encoding="UTF-8"?>
<svg id="_圖層_1" xmlns="http://www.w3.org/2000/svg" version="1.1" viewBox="0 0 30 30">
  <!-- Generator: Adobe Illustrator 29.8.1, SVG Export Plug-In . SVG Version: 2.1.1 Build 2)  -->
  <defs>
    <style>
      .st0 {
        fill: #444;
      }
    </style>
  </defs>
  <path class="st0" d="M17.5,23l-4.4-3.5h0c-1.2,1.3-2.8,1.9-4.5,1.9s-3.4-.8-4.6-1.9c-1.2-1.3-1.8-2.9-1.8-4.6s.7-3.4,1.9-4.6c1.2-1.2,2.8-1.9,4.6-1.9s3.4.8,4.5,1.9l4.4-3.4c-.4-.7-.6-1.4-.6-2.3s.5-2.4,1.3-3.3C19.1.5,20.3,0,21.6,0s2.4.5,3.4,1.3c.8.8,1.3,2,1.3,3.3s-.5,2.4-1.3,3.4c-.8.8-2,1.3-3.4,1.3s-2.4-.5-3.2-1.3l-4.4,3.4c.7,1,1,2.2,1,3.4s-.3,2.4-1,3.4l4.4,3.5c.8-.8,2-1.3,3.2-1.3s2.4.5,3.4,1.3c.8.8,1.3,2,1.3,3.4s-.5,2.4-1.3,3.3-2,1.4-3.4,1.4-2.4-.5-3.4-1.3c-.8-.8-1.3-2-1.3-3.3s.2-1.7.6-2.4h0ZM23.3,23.7c-.4-.4-1-.7-1.7-.7s-1.3.2-1.7.7-.7,1-.7,1.7.2,1.3.7,1.7,1,.7,1.7.7,1.3-.2,1.7-.7.7-1,.7-1.7-.2-1.3-.7-1.7ZM11.4,12.1c-.8-.8-1.8-1.3-2.9-1.3s-2.2.5-2.9,1.3-1.3,1.8-1.3,2.9.4,2.2,1.2,2.9c.8.8,1.8,1.3,2.9,1.3s2.2-.4,2.9-1.2c.8-.8,1.3-1.9,1.3-3s-.4-2.2-1.2-2.9h0ZM23.3,3c-.4-.4-1-.7-1.7-.7s-1.3.2-1.7.7-.7,1-.7,1.7.2,1.3.7,1.7c.4.4,1,.7,1.7.7s1.3-.2,1.7-.7.7-1,.7-1.7-.2-1.3-.7-1.7Z"/>
</svg>