<svg width="155" height="35" viewBox="0 0 155 35" fill="none" xmlns="http://www.w3.org/2000/svg">
<g clip-path="url(#clip0_786_23658)">
<path d="M43.098 7.91804H45.1894V6.81944H46.646V7.91804H48.6235V9.39098H48.241C48.2492 13.6633 48.3224 17.4881 48.4608 20.8571L47.2808 20.8734C47.1506 18.6192 47.0855 14.7863 47.0692 9.39098H46.6379V21.2314H45.1812V9.39098H44.7174C44.6604 13.3622 44.5546 17.1788 44.3837 20.8408H43.1875C43.4316 17.2602 43.5618 13.4436 43.57 9.39098H43.0898V7.91804H43.098ZM54.3281 8.66671C54.5071 8.1459 54.6455 7.62508 54.7431 7.12054H56.2161C56.0777 7.70646 55.9231 8.24355 55.7522 8.73182C56.037 8.80506 56.2486 8.9434 56.3788 9.13057C56.6636 9.51304 56.8101 9.96876 56.8101 10.4896C56.8101 11.2138 56.7287 11.7998 56.5741 12.2473H55.9801C56.0126 12.4101 56.0289 12.5566 56.0289 12.6949C56.0289 13.3134 55.8824 13.7854 55.5813 14.119C55.3128 14.4608 54.9222 14.648 54.4013 14.6968H49.7547V12.288H48.8595V8.67485H49.6896C49.5919 8.15404 49.478 7.63322 49.3396 7.12868H50.7475C50.8777 7.64949 50.9835 8.17031 51.0811 8.67485H52.0088V6.83572H53.4818V8.67485H54.3444L54.3281 8.66671ZM54.2142 15.2502C55.0117 15.2502 55.622 15.5269 56.0533 16.0802C56.5009 16.5848 56.7369 17.2358 56.7694 18.0414C56.7694 18.904 56.5497 19.5713 56.1184 20.0352C55.6708 20.613 55.0605 20.9222 54.2955 20.9629H49.2501V15.242H54.2142V15.2502ZM50.2348 10.9046H54.1979C54.678 10.9372 55.0605 11.0836 55.3453 11.3359C55.386 11.0511 55.4104 10.7825 55.4104 10.5384C55.4104 10.2048 55.2151 10.0176 54.8326 9.96062H50.2348V10.9046V10.9046ZM50.6498 17.4392H52.0739V16.4952H50.6498V17.4392ZM50.6498 19.6608H52.0739V18.7006H50.6498V19.6608ZM51.1788 13.4436H54.0677C54.4583 13.4436 54.6617 13.2157 54.6617 12.76C54.6617 12.345 54.4176 12.1253 53.9293 12.109H51.1788V13.4517V13.4436ZM53.4492 16.4952V17.4392H55.3046C55.1581 16.8614 54.7675 16.5522 54.1409 16.4952H53.4574H53.4492ZM53.4492 18.7006V19.6608H54.1328C54.7513 19.5957 55.1337 19.2784 55.2802 18.7006H53.4411H53.4492Z" fill="white"/>
<path d="M59.4707 15.893H65.5252V15.0304H67.1039V15.893H73.0282V17.366H69.7731C70.4323 18.6029 71.4414 19.3353 72.7922 19.5713V21.0768C70.652 20.8245 69.1058 19.5876 68.1618 17.3741H67.1039V21.2558H65.5252V17.3741H64.4429C63.6942 19.5713 62.1236 20.792 59.7311 21.0443L59.7148 19.5388C61.3098 19.2702 62.3596 18.546 62.8479 17.366H59.4788V15.893H59.4707ZM65.4275 6.85199H67.0714V7.74714L70.9531 7.76342C72.2389 7.90176 72.8899 8.42258 72.898 9.32587C72.8655 10.1396 72.7597 10.7418 72.5806 11.1487H71.832V11.8974H69.8545C69.6836 12.3694 69.4069 12.7844 69.0244 13.1425C71.1647 13.5901 72.3853 13.9074 72.6864 14.0865V15.5106C71.4495 15.0874 69.708 14.6236 67.4457 14.1353C65.7693 14.8514 63.3361 15.2095 60.1299 15.2095V13.9156C61.8632 13.9074 63.328 13.7935 64.508 13.5819C63.035 13.3459 62.3026 13.0448 62.3026 12.6705C62.3026 12.4996 62.4654 12.2473 62.7828 11.9055H60.7402V11.2627H60.0403L60.0241 7.74714H65.4357V6.85199H65.4275ZM61.6272 10.5709H64.2638C64.6789 10.2373 65.1509 9.87924 65.6717 9.48863L67.6492 9.5049C67.1609 9.89551 66.7214 10.2536 66.339 10.5791H71.1972C71.3111 10.1396 71.3763 9.83855 71.3763 9.66766C71.3763 9.29332 71.1077 9.10615 70.5625 9.10615H61.6353V10.5791L61.6272 10.5709ZM67.1853 12.7763C67.6736 12.5321 68.0479 12.2392 68.3002 11.8974H64.8172C64.5649 12.1171 64.4347 12.2636 64.4347 12.3124C64.4347 12.3857 64.7765 12.4589 65.4601 12.524C66.0379 12.5891 66.6075 12.6705 67.1853 12.7763V12.7763Z" fill="white"/>
<path d="M75.7952 8.65857H81.8172V6.85199H83.461V8.65857H89.4504V10.2373H83.461V12.3938H86.6429C87.6194 12.524 88.1158 13.0937 88.1158 14.1027C88.1158 15.3071 87.0335 16.6417 84.8607 18.0984C84.6654 18.2123 84.4864 18.3181 84.3155 18.4158C85.7396 18.9447 87.4323 19.3028 89.3935 19.4899V21.1826C86.5941 20.9385 84.2911 20.3525 82.4926 19.4248C80.1815 20.5316 77.9843 21.1256 75.8929 21.1989V19.5225C77.6914 19.3923 79.3515 19.0261 80.8732 18.4239C79.4898 17.3823 78.497 16.0721 77.8867 14.5096L79.6119 14.5259C80.1734 15.8279 81.158 16.8614 82.5659 17.6427C82.8019 17.5125 83.0379 17.3823 83.282 17.2439C85.3164 15.9012 86.3337 14.8758 86.3337 14.176C86.3337 14.0376 86.2848 13.9644 86.1872 13.9644H77.6588V12.4019H81.8091V10.2454H75.7871V8.66671L75.7952 8.65857Z" fill="white"/>
<path d="M92.1117 8.36562H93.8694C93.8613 7.85294 93.845 7.35654 93.8369 6.86014H95.3668C95.3749 7.38095 95.3912 7.8855 95.3993 8.36562H96.9455V9.83856H95.4319C95.4563 11.1243 95.4644 12.2799 95.4644 13.3052C95.9608 13.1262 96.4572 12.9309 96.9373 12.7275V14.3387C96.4491 14.5422 95.9608 14.7212 95.4644 14.884V18.7982C95.4644 20.3607 94.968 21.1501 93.9752 21.1501C93.4218 21.1501 92.9417 21.1256 92.5348 21.0687L92.5511 19.5795C92.7301 19.6446 93.0231 19.6853 93.43 19.7097C93.7799 19.7097 93.9589 19.3597 93.9589 18.668C93.9671 17.5613 93.9752 16.4546 93.9752 15.3641C93.3323 15.5431 92.7138 15.714 92.1035 15.8605V14.3143C92.7464 14.1679 93.373 13.997 93.9915 13.8016C93.9671 12.4508 93.9427 11.1325 93.9101 9.83856H92.1035V8.36562H92.1117ZM103.773 8.89458H105.279C105.034 9.70836 104.766 10.4489 104.465 11.1325H105.726V12.5077H101.128C101.096 12.7844 101.055 13.053 101.014 13.3052H105.889V14.6805H100.664C100.583 14.9328 100.485 15.1769 100.396 15.3967H103.716C104.139 15.3967 104.473 15.4862 104.709 15.6652C104.945 15.8849 105.059 16.1697 105.059 16.5115C105.059 16.9672 104.88 17.4148 104.514 17.8543C104.229 18.2774 103.83 18.6762 103.334 19.0342C104.115 19.3679 104.986 19.5876 105.954 19.7015V21.1907C104.359 21.0524 103 20.6374 101.877 19.9457C100.591 20.6048 99.0857 21.0443 97.3687 21.2558V19.7259C98.6463 19.612 99.7286 19.3597 100.607 18.9773C100.079 18.4565 99.6228 17.8624 99.2485 17.2032C98.7277 17.8217 98.101 18.3507 97.3605 18.782V17.0405C98.1417 16.422 98.7277 15.6326 99.1345 14.6724H97.4582V13.2971H99.5821C99.6472 13.0286 99.6961 12.7682 99.7286 12.4996H97.6209V11.1243H102.959C103.309 10.3675 103.586 9.61884 103.773 8.88644V8.89458ZM105.661 7.088V8.39817C103.407 8.50397 100.681 8.58534 97.4989 8.63417V7.30771C99.8344 7.30771 102.552 7.23447 105.661 7.088V7.088ZM97.8488 9.03292H99.3054C99.5252 9.56188 99.7367 10.1234 99.932 10.7093H98.4266C98.2801 10.1478 98.0848 9.58629 97.8488 9.03292V9.03292ZM100.485 16.6499C100.876 17.2928 101.372 17.8298 101.958 18.2611C102.202 18.1147 102.398 17.96 102.552 17.8136C102.967 17.5125 103.187 17.2276 103.203 16.951C103.203 16.7475 103.098 16.6499 102.886 16.6499H100.494H100.485ZM100.534 8.98409H101.975C102.17 9.51305 102.349 10.0746 102.52 10.6605H101.063C100.925 10.099 100.746 9.53746 100.534 8.98409V8.98409Z" fill="white"/>
<path d="M109.014 8.16217H111.268V6.90082H112.725V8.16217H114.531C114.605 7.95873 114.678 7.75528 114.743 7.53556H116.102C115.793 8.82133 115.239 10.042 114.442 11.1976H115.573V12.6054H113.303C113.001 12.939 112.7 13.2401 112.391 13.5168H114.385C115.028 13.647 115.345 13.9969 115.345 14.5747C115.345 15.1525 114.662 15.771 113.303 16.5115V16.6905L115.711 16.5603V17.9356L113.303 18.0658V19.612C113.303 20.613 112.774 21.1175 111.724 21.1175C111.04 21.1175 110.422 21.1012 109.868 21.0687V19.7422C110.519 19.7666 111.105 19.7748 111.626 19.7748C111.805 19.7748 111.895 19.612 111.895 19.2784V18.1309L108.68 18.31V16.9347L111.895 16.7557V16.1941C112.416 15.7547 112.936 15.3234 113.457 14.884C113.457 14.827 113.4 14.8026 113.278 14.8026H110.853C110.161 15.3315 109.396 15.8524 108.566 16.3488V14.7212C109.641 14.0376 110.576 13.3378 111.374 12.6135H108.566V11.2057H111.268V9.59442H109.014V8.17031V8.16217ZM112.717 11.1976C113.156 10.6767 113.522 10.1396 113.832 9.58628H112.717V11.1976ZM118.177 17.3497C117.632 16.1372 117.249 14.6724 117.03 12.9553C116.745 13.7935 116.379 14.5096 115.947 15.0955L115.964 12.5728C116.297 11.165 116.46 9.27705 116.46 6.90082H117.917C117.917 7.34839 117.909 7.76342 117.884 8.1459H122.246V9.60256H121.53V10.1966C121.351 13.232 120.789 15.6571 119.853 17.4636C120.472 18.4971 121.253 19.197 122.205 19.5713V21.15C120.895 20.7676 119.829 19.9863 119.007 18.7982C118.145 19.9294 117.079 20.7269 115.809 21.1907V19.5469C116.769 19.0668 117.559 18.3344 118.185 17.3416L118.177 17.3497ZM118.112 9.60256C118.185 12.0764 118.486 14.0946 119.007 15.6571C119.593 14.176 119.951 12.3368 120.089 10.1478V9.60256H118.112V9.60256Z" fill="white"/>
<path d="M134.916 14.6968C135.526 14.7945 135.827 15.1037 135.827 15.6245C135.827 15.9907 135.128 16.4952 133.72 17.1544H138.48V18.4483H133.02V18.7657C132.947 20.3444 131.962 21.1338 130.066 21.1338C128.748 21.1338 127.852 21.0687 127.38 20.9385V19.6446C128.202 19.7422 129.179 19.791 130.318 19.791C131.083 19.7178 131.466 19.3842 131.466 18.782V18.4483H124.898V17.1544H131.466V16.837L133.524 16.0395C133.524 15.9419 133.484 15.8931 133.394 15.8931H127.34V14.6968H134.908H134.916ZM129.423 7.14496V8.42259H127.478V9.13871H129.423V10.335H127.478V11.0185H129.456V12.2148H127.478V12.8984H135.836C135.844 12.6868 135.86 12.4752 135.884 12.2555H133.728V11.0592H135.966C135.99 10.807 136.006 10.5628 136.015 10.3268H133.712V9.13057H136.015C135.876 8.71555 135.551 8.47955 135.038 8.43072H133.809V7.18565H135.372C136.714 7.32399 137.382 8.07266 137.382 9.42353C137.382 10.5628 137.325 11.7916 137.219 13.0937C137.919 13.3297 138.277 13.7528 138.293 14.3713C138.261 15.2583 138.163 15.9175 137.992 16.3488H136.462C136.674 15.5106 136.78 14.9572 136.78 14.6887C136.78 14.3387 136.511 14.1597 135.982 14.1597H126.575V16.2674H125.118L125.102 12.8984H126.111V7.12868H129.431L129.423 7.14496ZM132.076 10.0339H133.37C133.158 10.4001 132.922 10.7093 132.67 10.9778C132.873 11.0836 133.044 11.1894 133.199 11.2789V12.6379C132.743 12.3206 132.263 12.0439 131.759 11.8242C131.197 12.2392 130.554 12.524 129.838 12.6868V11.5882C130.09 11.5231 130.326 11.4417 130.538 11.3359C130.326 11.2627 130.098 11.1976 129.871 11.1406V10.042C130.538 10.1803 131.124 10.3431 131.628 10.5384C131.799 10.3675 131.946 10.2048 132.076 10.042V10.0339ZM132.076 7.17751H133.37C133.166 7.51929 132.947 7.82039 132.703 8.08894C132.914 8.19473 133.101 8.30866 133.264 8.42259V9.78159C132.792 9.43981 132.312 9.14685 131.807 8.90271C131.23 9.34215 130.587 9.64325 129.871 9.81414V8.71555C130.155 8.65044 130.416 8.55279 130.636 8.43072C130.383 8.34935 130.123 8.26797 129.871 8.19473V7.09613C130.554 7.25889 131.156 7.43792 131.677 7.64136C131.816 7.49488 131.946 7.34026 132.076 7.19378V7.17751Z" fill="white"/>
<path d="M144.039 6.88454H145.83L143.03 10.5709H143.958L145.301 8.74809H147.091L143.494 13.5087H144.951C145.219 13.5087 145.349 13.3134 145.349 12.9309V11.816H146.708V13.5087C146.708 14.3794 146.228 14.8433 145.268 14.9002H144.821V21.1745H143.38V14.9002H142.534C141.85 14.9002 141.508 14.6154 141.508 14.0539C141.508 13.8912 141.647 13.6389 141.923 13.289L142.933 11.93H141.85C141.378 11.8567 141.15 11.5556 141.15 11.0348C141.15 10.8558 141.232 10.6605 141.386 10.457L144.039 6.8764V6.88454ZM141.736 15.3804H142.998C142.957 18.0658 142.371 19.8724 141.256 20.792V18.8552C141.574 18.1228 141.736 16.9591 141.736 15.3722V15.3804ZM145.236 15.3641H146.464C146.472 16.5278 146.562 17.4962 146.733 18.2693V20.9222C145.911 19.8236 145.415 17.9763 145.227 15.3641H145.236ZM147.18 7.36467H152.519C154.098 7.55998 154.895 8.47141 154.911 10.1152C154.968 11.2301 154.993 12.5403 154.993 14.0295C154.993 15.5187 154.968 16.8859 154.928 18.2123C154.871 19.9782 154.089 20.8978 152.576 20.9629C152.022 20.9629 151.518 20.9385 151.062 20.8978V19.5388C151.518 19.5795 152.014 19.6039 152.551 19.6039C153.219 19.6039 153.56 19.1156 153.56 18.1472C153.593 17.0486 153.609 15.6896 153.609 14.0702C153.609 12.7356 153.56 11.4498 153.463 10.2047C153.463 9.22822 153.08 8.7074 152.332 8.65857H148.613V20.9873H147.205L147.189 7.36467H147.18ZM150.501 12.4264H149.06V11.0999H149.622C149.524 10.5547 149.435 9.94434 149.353 9.26077H150.517C150.615 9.90365 150.712 10.514 150.818 11.0999H151.233C151.396 10.4733 151.51 9.86296 151.583 9.27704H152.73C152.69 9.92807 152.576 10.5303 152.397 11.0999H153.023V12.4264H151.729V13.883H152.861V15.1769H150.452V15.6733C150.452 16.1209 150.46 16.4627 150.484 16.6987C150.558 17.2032 150.786 17.4474 151.152 17.4474C151.852 17.4148 152.437 17.3416 152.893 17.2276V18.5215C152.56 18.6599 151.843 18.7331 150.737 18.7331C149.874 18.7331 149.37 18.2449 149.231 17.2765C149.199 16.837 149.182 16.3732 149.182 15.8849C149.182 15.1851 149.199 14.5178 149.231 13.8912H150.493V12.4345L150.501 12.4264Z" fill="white"/>
<path d="M46.9149 29.7435H45.5803V27.8881H44.7503V26.6837H45.5803V26.1792C45.5803 25.9757 45.5315 25.8211 45.4338 25.6991C45.3362 25.577 45.206 25.52 45.0432 25.52C44.8805 25.52 44.7421 25.577 44.6445 25.6991C44.5468 25.813 44.498 25.9757 44.498 26.1792V29.7435H43.1797V26.2361C43.1797 25.6584 43.3506 25.1945 43.6924 24.8364C44.0342 24.4865 44.4817 24.3075 45.0432 24.3075C45.6047 24.3075 46.0523 24.4865 46.3941 24.8446C46.7359 25.2026 46.9149 25.6665 46.9149 26.2361V29.7435V29.7435Z" fill="white"/>
<path d="M49.8525 26.6512H49.7548C49.4212 26.6512 49.1689 26.7651 48.998 26.9848C48.819 27.2045 48.7376 27.5626 48.7376 28.0427V29.7435H48.0703V26.0978H48.7132V26.5128C48.8271 26.3338 48.9736 26.2117 49.1364 26.1385C49.2991 26.0653 49.4944 26.0246 49.7141 26.0246H49.8688V26.6675L49.8525 26.6512Z" fill="white"/>
<path d="M52.97 29.7435H52.3352C51.8714 29.7435 51.4564 29.5889 51.0983 29.2797C50.6995 28.9298 50.4961 28.4822 50.4961 27.9207C50.4961 27.3592 50.6995 26.9197 51.0983 26.5698C51.4564 26.2524 51.8714 26.0978 52.3352 26.0978H52.97V26.7407H52.4573C52.1155 26.7407 51.8225 26.8383 51.5866 27.0418C51.3261 27.2615 51.1959 27.5545 51.1959 27.9288C51.1959 28.3031 51.3261 28.588 51.5866 28.8077C51.8307 29.0111 52.1155 29.1169 52.4573 29.1169H52.97V29.7598V29.7435Z" fill="white"/>
<path d="M56.9234 29.7435H56.2561V27.6114C56.2561 27.2615 56.1666 27.0092 55.9957 26.8546C55.8492 26.7244 55.6376 26.6512 55.3691 26.6512C55.1168 26.6512 54.9052 26.7407 54.7343 26.9197C54.5635 27.0988 54.4739 27.3266 54.4739 27.6033V29.7354H53.8066V24.397H54.4739V26.3908C54.5797 26.2687 54.7181 26.1711 54.8727 26.106C55.0354 26.0408 55.2145 26.0002 55.4016 26.0002C55.8736 26.0002 56.2317 26.1141 56.4758 26.3338C56.7688 26.6024 56.9234 27.0255 56.9234 27.6033V29.7354V29.7435Z" fill="white"/>
<path d="M59.0638 25.2596C59.0638 25.3736 59.0312 25.4712 58.958 25.5526C58.8847 25.6258 58.7871 25.6665 58.6569 25.6665C58.5348 25.6665 58.4372 25.6258 58.3639 25.5444C58.2907 25.4631 58.25 25.3654 58.25 25.2596C58.25 25.1538 58.2825 25.0562 58.3558 24.9748C58.429 24.9016 58.5267 24.8609 58.6569 24.8609C58.7871 24.8609 58.8766 24.9016 58.9498 24.9829C59.0231 25.0643 59.0638 25.1538 59.0638 25.2596V25.2596ZM58.9905 29.7435H58.3232V26.0897H58.9905V29.7435Z" fill="white"/>
<path d="M63.5572 26.0897L62.2796 29.4424C62.2226 29.5889 62.1575 29.6947 62.0761 29.7435C61.9947 29.7923 61.8889 29.8249 61.7587 29.8249C61.6285 29.8249 61.5227 29.8005 61.4414 29.7517C61.3681 29.7028 61.2949 29.6052 61.2461 29.4424L59.9766 26.0897H60.7008L61.7669 28.9297L62.8248 26.0897H63.5572V26.0897Z" fill="white"/>
<path d="M67.7137 29.7435H67.0465V27.6847C67.0465 27.3592 66.9244 27.1069 66.6803 26.9116C66.4605 26.7407 66.1838 26.6512 65.8583 26.6512C65.5003 26.6512 65.2073 26.7732 64.9876 27.0255C64.7679 27.2696 64.6539 27.5789 64.6539 27.9369C64.6539 28.295 64.7679 28.5717 64.9957 28.8158C65.2236 29.06 65.5084 29.182 65.8502 29.182C66.0374 29.182 66.2001 29.1413 66.3547 29.0518C66.5094 28.9623 66.6477 28.8402 66.7698 28.6775V29.4668C66.607 29.5889 66.4687 29.6703 66.3547 29.7191C66.192 29.7842 66.0048 29.8168 65.777 29.8168C65.2561 29.8168 64.833 29.6296 64.4912 29.2553C64.1494 28.8809 63.9785 28.4171 63.9785 27.88C63.9785 27.3429 64.1413 26.9035 64.4749 26.5617C64.8248 26.1955 65.2887 26.0164 65.8665 26.0164C66.4443 26.0164 66.8837 26.1711 67.2173 26.4884C67.551 26.7977 67.7137 27.2208 67.7137 27.7579V29.7517V29.7435Z" fill="white"/>
<path d="M69.5384 29.7435H68.8711V24.4052H69.5384V29.7435Z" fill="white"/>
<path d="M77.2206 29.7435H75.8697V28.1323C75.8697 27.9776 75.8128 27.8637 75.6988 27.8067C75.5849 27.7416 75.3733 27.7172 75.0804 27.7172V26.5128C75.3326 26.5128 75.5117 26.4722 75.6256 26.3989C75.7395 26.3257 75.7965 26.1873 75.7965 25.9839C75.7965 25.8374 75.7477 25.7316 75.6581 25.6584C75.5605 25.5851 75.4547 25.5526 75.3326 25.5526C75.1699 25.5526 75.0478 25.6095 74.9664 25.7235C74.8851 25.8374 74.8444 26.0246 74.8444 26.2931V29.7517H73.4609V26.3013C73.4609 25.6747 73.6318 25.1864 73.9736 24.8365C74.3154 24.4947 74.7711 24.3156 75.357 24.3156C75.8941 24.3156 76.3254 24.454 76.6509 24.7388C76.9765 25.0236 77.1392 25.4061 77.1392 25.9025C77.1392 26.5779 76.8381 26.9441 76.2278 27.0092C76.5696 27.0988 76.7893 27.172 76.8951 27.2452C77.1067 27.3836 77.2124 27.6033 77.2124 27.9044V29.7435H77.2206Z" fill="white"/>
<path d="M82.0855 28.1241C82.0855 28.6042 81.8983 29.0111 81.5321 29.3366C81.1578 29.6621 80.7102 29.8249 80.1813 29.8249C79.6523 29.8249 79.221 29.6459 78.8467 29.2878C78.4723 28.9297 78.2852 28.474 78.2852 27.9207C78.2852 27.3673 78.4723 26.9197 78.8385 26.5535C79.2129 26.1955 79.6523 26.0083 80.1731 26.0083C80.5881 26.0083 80.9381 26.1059 81.2392 26.3094C81.5403 26.5128 81.7681 26.7977 81.9472 27.1638L79.4733 28.531L79.1966 28.002L81.0032 27.0011C80.8811 26.879 80.759 26.7895 80.6451 26.7325C80.5312 26.6756 80.3684 26.6512 80.1731 26.6512C79.8232 26.6512 79.5302 26.7651 79.3105 27.0011C79.0908 27.2371 78.9769 27.5382 78.9769 27.9207C78.9769 28.3031 79.0908 28.5961 79.3187 28.8321C79.5465 29.0681 79.8313 29.182 80.1813 29.182C80.5475 29.182 80.8404 29.0762 81.0439 28.8565C81.2148 28.6775 81.3368 28.4008 81.4101 28.0346L82.0936 28.116L82.0855 28.1241Z" fill="white"/>
<path d="M85.845 28.7263C85.845 29.0599 85.7392 29.3122 85.5276 29.4831C85.316 29.654 85.0475 29.7435 84.7057 29.7435H82.834V29.1006H84.7057C84.9986 29.1006 85.1451 28.9867 85.1451 28.7507C85.1451 28.5798 84.9417 28.4333 84.5511 28.3031C83.9326 28.1078 83.5664 27.9776 83.4443 27.9207C83.0374 27.7172 82.8421 27.4324 82.8421 27.0743C82.8421 26.7488 82.9479 26.5047 83.1676 26.3419C83.3792 26.171 83.6884 26.0897 84.0953 26.0897H85.6659V26.7325H83.9733C83.8105 26.7325 83.6966 26.757 83.6315 26.8058C83.5664 26.8546 83.5338 26.936 83.5338 27.0581C83.5338 27.2208 83.7291 27.3592 84.1279 27.4812C84.7219 27.6602 85.0963 27.7823 85.2346 27.8556C85.6415 28.0671 85.8368 28.3601 85.8368 28.7263H85.845Z" fill="white"/>
<path d="M90.3531 27.9207C90.3531 28.474 90.1659 28.9297 89.7916 29.2878C89.4172 29.6459 88.9697 29.8249 88.4488 29.8249C87.928 29.8249 87.4886 29.6459 87.1142 29.2878C86.7399 28.9297 86.5527 28.474 86.5527 27.9207C86.5527 27.3673 86.7399 26.9197 87.1061 26.5535C87.4804 26.1955 87.9199 26.0083 88.4407 26.0083C88.9615 26.0083 89.401 26.1873 89.7753 26.5535C90.1496 26.9116 90.3368 27.3673 90.3368 27.9207H90.3531ZM89.6532 27.9207C89.6532 27.5463 89.5393 27.2452 89.3114 27.0092C89.0836 26.7732 88.7988 26.6593 88.4488 26.6593C88.0989 26.6593 87.8059 26.7732 87.5862 27.0092C87.3665 27.2452 87.2526 27.5463 87.2526 27.9288C87.2526 28.3113 87.3665 28.6042 87.5944 28.8402C87.8222 29.0762 88.107 29.1902 88.457 29.1902C88.8069 29.1902 89.0917 29.0762 89.3196 28.8402C89.5474 28.6042 89.6614 28.3031 89.6614 27.9288L89.6532 27.9207Z" fill="white"/>
<path d="M94.3824 28.2218C94.3824 28.7019 94.2359 29.0925 93.943 29.3855C93.65 29.6784 93.2756 29.8249 92.8199 29.8249C92.3642 29.8249 91.998 29.6784 91.7051 29.3855C91.4121 29.0925 91.2656 28.7019 91.2656 28.2218V26.0978H91.9329V28.2218C91.9329 28.5066 92.0224 28.7344 92.1933 28.9135C92.3642 29.0925 92.5758 29.182 92.8281 29.182C93.0803 29.182 93.2919 29.0925 93.4628 28.9135C93.6337 28.7344 93.7232 28.4984 93.7232 28.2218V26.0978H94.3905V28.2218H94.3824Z" fill="white"/>
<path d="M97.1904 26.6512H97.0927C96.7591 26.6512 96.5068 26.7651 96.3359 26.9848C96.1569 27.2045 96.0755 27.5626 96.0755 28.0427V29.7435H95.4082V26.0978H96.0511V26.5128C96.165 26.3338 96.3115 26.2117 96.4743 26.1385C96.637 26.0653 96.8323 26.0246 97.052 26.0246H97.2066V26.6675L97.1904 26.6512Z" fill="white"/>
<path d="M100.306 29.7435H99.6712C99.2073 29.7435 98.7923 29.5889 98.4342 29.2797C98.0355 28.9298 97.832 28.4822 97.832 27.9207C97.832 27.3592 98.0355 26.9197 98.4342 26.5698C98.7923 26.2524 99.2073 26.0978 99.6712 26.0978H100.306V26.7407H99.7932C99.4514 26.7407 99.1585 26.8383 98.9225 27.0418C98.6621 27.2615 98.5319 27.5545 98.5319 27.9288C98.5319 28.3031 98.6621 28.588 98.9225 28.8077C99.1666 29.0111 99.4514 29.1169 99.7932 29.1169H100.306V29.7598V29.7435Z" fill="white"/>
<path d="M104.832 28.1241C104.832 28.6042 104.644 29.0111 104.278 29.3366C103.904 29.6621 103.456 29.8249 102.927 29.8249C102.398 29.8249 101.967 29.6459 101.593 29.2878C101.218 28.9297 101.031 28.474 101.031 27.9207C101.031 27.3673 101.218 26.9197 101.585 26.5535C101.959 26.1955 102.398 26.0083 102.919 26.0083C103.334 26.0083 103.684 26.1059 103.985 26.3094C104.286 26.5128 104.514 26.7977 104.693 27.1638L102.219 28.531L101.943 28.002L103.749 27.0011C103.627 26.879 103.505 26.7895 103.391 26.7325C103.277 26.6756 103.115 26.6512 102.919 26.6512C102.569 26.6512 102.276 26.7651 102.057 27.0011C101.837 27.2371 101.723 27.5382 101.723 27.9207C101.723 28.3031 101.837 28.5961 102.065 28.8321C102.293 29.0681 102.577 29.182 102.927 29.182C103.294 29.182 103.587 29.0762 103.79 28.8565C103.961 28.6775 104.083 28.4008 104.156 28.0346L104.84 28.116L104.832 28.1241Z" fill="white"/>
<path d="M108.591 28.7263C108.591 29.0599 108.485 29.3122 108.274 29.4831C108.062 29.654 107.794 29.7435 107.452 29.7435H105.58V29.1006H107.452C107.745 29.1006 107.891 28.9867 107.891 28.7507C107.891 28.5798 107.688 28.4333 107.297 28.3031C106.679 28.1078 106.312 27.9776 106.19 27.9207C105.784 27.7172 105.588 27.4324 105.588 27.0743C105.588 26.7488 105.694 26.5047 105.914 26.3419C106.125 26.171 106.435 26.0897 106.841 26.0897H108.412V26.7325H106.719C106.557 26.7325 106.443 26.757 106.378 26.8058C106.312 26.8546 106.28 26.936 106.28 27.0581C106.28 27.2208 106.475 27.3592 106.874 27.4812C107.468 27.6602 107.842 27.7823 107.981 27.8556C108.388 28.0671 108.583 28.3601 108.583 28.7263H108.591Z" fill="white"/>
<path d="M114.019 25.0562H113.547C113.319 25.0562 113.148 25.1131 113.026 25.2189C112.904 25.3247 112.839 25.4956 112.839 25.7235V26.0897H113.93V26.7326H112.839V29.7435H112.172V25.7397C112.172 25.3329 112.294 25.0155 112.53 24.7714C112.766 24.5272 113.075 24.4052 113.458 24.4052H114.027V25.048L114.019 25.0562Z" fill="white"/>
<path d="M118.242 27.9207C118.242 28.474 118.055 28.9297 117.68 29.2878C117.306 29.6459 116.858 29.8249 116.338 29.8249C115.817 29.8249 115.377 29.6459 115.003 29.2878C114.629 28.9297 114.441 28.474 114.441 27.9207C114.441 27.3673 114.629 26.9197 114.995 26.5535C115.369 26.1955 115.809 26.0083 116.329 26.0083C116.85 26.0083 117.29 26.1873 117.664 26.5535C118.038 26.9116 118.225 27.3673 118.225 27.9207H118.242ZM117.542 27.9207C117.542 27.5463 117.428 27.2452 117.2 27.0092C116.972 26.7732 116.687 26.6593 116.338 26.6593C115.988 26.6593 115.695 26.7732 115.475 27.0092C115.255 27.2452 115.141 27.5463 115.141 27.9288C115.141 28.3113 115.255 28.6042 115.483 28.8402C115.711 29.0762 115.996 29.1902 116.346 29.1902C116.696 29.1902 116.98 29.0762 117.208 28.8402C117.436 28.6042 117.55 28.3031 117.55 27.9288L117.542 27.9207Z" fill="white"/>
<path d="M120.927 26.6512H120.829C120.495 26.6512 120.243 26.7651 120.072 26.9848C119.893 27.2045 119.812 27.5626 119.812 28.0427V29.7435H119.145V26.0978H119.787V26.5128C119.901 26.3338 120.048 26.2117 120.211 26.1385C120.373 26.0653 120.569 26.0246 120.788 26.0246H120.943V26.6675L120.927 26.6512Z" fill="white"/>
<path d="M127.242 25.6828H126.266V29.7435H124.939V25.6828H123.963V24.4052H127.234V25.6828H127.242Z" fill="white"/>
<path d="M131.669 28.1241C131.669 28.6042 131.482 29.0111 131.116 29.3366C130.742 29.6621 130.294 29.8249 129.765 29.8249C129.236 29.8249 128.805 29.6459 128.431 29.2878C128.056 28.9297 127.869 28.474 127.869 27.9207C127.869 27.3673 128.056 26.9197 128.423 26.5535C128.797 26.1955 129.236 26.0083 129.757 26.0083C130.172 26.0083 130.522 26.1059 130.823 26.3094C131.124 26.5128 131.352 26.7977 131.531 27.1638L129.057 28.531L128.781 28.002L130.587 27.0011C130.465 26.879 130.343 26.7895 130.229 26.7325C130.115 26.6756 129.952 26.6512 129.757 26.6512C129.407 26.6512 129.114 26.7651 128.894 27.0011C128.675 27.2371 128.561 27.5382 128.561 27.9207C128.561 28.3031 128.675 28.5961 128.903 28.8321C129.13 29.0681 129.415 29.182 129.765 29.182C130.131 29.182 130.424 29.0762 130.628 28.8565C130.799 28.6775 130.921 28.4008 130.994 28.0346L131.678 28.116L131.669 28.1241Z" fill="white"/>
<path d="M136.145 29.7435H135.478V27.6847C135.478 27.3592 135.356 27.1069 135.112 26.9116C134.892 26.7407 134.615 26.6512 134.29 26.6512C133.932 26.6512 133.639 26.7732 133.419 27.0255C133.2 27.2696 133.086 27.5789 133.086 27.9369C133.086 28.295 133.2 28.5717 133.427 28.8158C133.655 29.06 133.94 29.182 134.282 29.182C134.469 29.182 134.632 29.1413 134.786 29.0518C134.941 28.9623 135.079 28.8402 135.201 28.6775V29.4668C135.039 29.5889 134.9 29.6703 134.786 29.7191C134.624 29.7842 134.436 29.8168 134.209 29.8168C133.696 29.8168 133.265 29.6296 132.923 29.2553C132.581 28.8809 132.41 28.4171 132.41 27.88C132.41 27.3429 132.573 26.9035 132.907 26.5617C133.256 26.1955 133.72 26.0164 134.298 26.0164C134.876 26.0164 135.315 26.1711 135.649 26.4884C135.983 26.7977 136.145 27.2208 136.145 27.7579V29.7517V29.7435Z" fill="white"/>
<path d="M139.587 29.7435H138.952C138.489 29.7435 138.074 29.5889 137.715 29.2797C137.317 28.9298 137.113 28.4822 137.113 27.9207C137.113 27.3592 137.317 26.9197 137.715 26.5698C138.074 26.2524 138.489 26.0978 138.952 26.0978H139.587V26.7407H139.074C138.733 26.7407 138.44 26.8383 138.204 27.0418C137.943 27.2615 137.813 27.5545 137.813 27.9288C137.813 28.3031 137.943 28.588 138.204 28.8077C138.448 29.0111 138.733 29.1169 139.074 29.1169H139.587V29.7598V29.7435Z" fill="white"/>
<path d="M143.543 29.7435H142.875V27.6114C142.875 27.2615 142.786 27.0092 142.615 26.8546C142.468 26.7244 142.257 26.6512 141.988 26.6512C141.736 26.6512 141.524 26.7407 141.353 26.9197C141.183 27.0988 141.093 27.3266 141.093 27.6033V29.7354H140.426V24.397H141.093V26.3908C141.199 26.2687 141.337 26.1711 141.492 26.106C141.655 26.0408 141.834 26.0002 142.021 26.0002C142.493 26.0002 142.851 26.1141 143.095 26.3338C143.388 26.6024 143.543 27.0255 143.543 27.6033V29.7354V29.7435Z" fill="white"/>
<path d="M145.691 25.2596C145.691 25.3736 145.658 25.4712 145.585 25.5526C145.512 25.6258 145.414 25.6665 145.284 25.6665C145.162 25.6665 145.064 25.6258 144.991 25.5444C144.918 25.4631 144.877 25.3654 144.877 25.2596C144.877 25.1538 144.91 25.0562 144.983 24.9748C145.056 24.9016 145.154 24.8609 145.284 24.8609C145.414 24.8609 145.504 24.9016 145.577 24.9829C145.65 25.0643 145.691 25.1538 145.691 25.2596V25.2596ZM145.617 29.7435H144.95V26.0897H145.617V29.7435Z" fill="white"/>
<path d="M150.15 29.7435H149.483V27.6114C149.483 27.3348 149.393 27.1069 149.223 26.9279C149.052 26.7488 148.84 26.6593 148.588 26.6593C148.336 26.6593 148.14 26.7488 147.961 26.9279C147.782 27.1069 147.693 27.3348 147.693 27.6114V29.7435H147.025V27.6114C147.025 27.1394 147.172 26.757 147.465 26.464C147.758 26.1711 148.132 26.0164 148.588 26.0164C149.044 26.0164 149.41 26.1629 149.711 26.464C150.012 26.757 150.158 27.1476 150.158 27.6114V29.7435H150.15Z" fill="white"/>
<path d="M154.765 29.4506C154.765 30.1097 154.578 30.6224 154.22 30.9805C153.878 31.3141 153.422 31.4769 152.852 31.4769C152.649 31.4769 152.454 31.4606 152.267 31.428C152.079 31.3955 151.876 31.3385 151.648 31.2734L151.811 30.6631C152.006 30.7201 152.193 30.7607 152.356 30.7933C152.519 30.8258 152.673 30.8421 152.82 30.8421C153.17 30.8421 153.463 30.7607 153.683 30.598C153.951 30.3945 154.089 30.0934 154.089 29.6866V27.9858C154.089 27.587 153.975 27.2696 153.748 27.0255C153.52 26.7814 153.251 26.6593 152.926 26.6593C152.543 26.6593 152.25 26.7895 152.047 27.0499C151.835 27.3103 151.738 27.6277 151.738 28.0102C151.738 28.3601 151.852 28.6449 152.088 28.8646C152.324 29.0844 152.608 29.1902 152.966 29.1902C153.105 29.1902 153.251 29.1576 153.414 29.1006C153.52 29.06 153.658 28.9867 153.821 28.8891V29.5808C153.691 29.654 153.544 29.711 153.39 29.7598C153.235 29.8086 153.097 29.833 152.958 29.833C152.429 29.833 151.982 29.654 151.616 29.3041C151.249 28.9542 151.07 28.5066 151.07 27.9776C151.07 27.4161 151.241 26.9523 151.591 26.5779C151.933 26.2117 152.397 26.0246 152.958 26.0246C153.495 26.0246 153.935 26.2117 154.277 26.5861C154.602 26.936 154.757 27.351 154.757 27.8393V29.4668L154.765 29.4506Z" fill="white"/>
<path d="M32.7625 13.8586C31.9488 5.42791 24.4539 -0.74052 16.0313 0.0732568C7.60058 0.887033 1.43215 8.38191 2.24593 16.8126C3.0597 25.2434 10.5546 31.4118 18.9853 30.598C27.416 29.7842 33.5845 22.2894 32.7707 13.8586H32.7625Z" fill="black"/>
<path d="M31.2158 14.0051C30.4834 6.42885 23.7535 0.887034 16.1772 1.61943C8.60097 2.35183 3.05915 9.08176 3.79155 16.658C4.52395 24.2343 11.262 29.7761 18.8383 29.0437C26.4145 28.3113 31.9564 21.5732 31.224 13.997L31.2158 14.0051Z" fill="black"/>
<path d="M8.60156 4.81756C8.70735 4.72805 8.80501 4.64667 8.9108 4.56529C8.80501 4.64667 8.69922 4.73619 8.60156 4.81756Z" fill="white"/>
<path d="M3.72656 15.063C3.72656 14.9654 3.72656 14.8677 3.7347 14.7701C3.7347 14.8677 3.7347 14.9654 3.72656 15.063Z" fill="white"/>
<path d="M31.127 13.2564C31.127 13.2564 31.1351 13.3297 31.1432 13.3704C31.1432 13.3297 31.1351 13.2971 31.127 13.2564Z" fill="white"/>
<path d="M16.902 29.1006C16.6741 29.0925 16.4544 29.0762 16.2266 29.0518C16.4463 29.0762 16.6741 29.0844 16.902 29.1006Z" fill="white"/>
<path d="M31.1758 13.5901C31.1758 13.5901 31.1839 13.6552 31.1921 13.6959C31.1921 13.6633 31.1839 13.6308 31.1758 13.5901Z" fill="white"/>
<path d="M15.4694 28.9623C15.4124 28.9623 15.3636 28.946 15.3066 28.9379C15.3636 28.946 15.4124 28.9542 15.4694 28.9623Z" fill="white"/>
<path d="M16.1862 29.0518C15.9827 29.0355 15.7793 29.0111 15.584 28.9786C15.7874 29.003 15.9827 29.0274 16.1862 29.0518Z" fill="white"/>
<path d="M19.831 13.7772C19.1556 15.478 18.7487 17.2114 18.5859 18.9447C18.6348 19.4899 18.6673 20.0514 18.6755 20.6048V20.7269C19.2695 19.9294 19.9368 19.1644 20.6611 18.4483C23.6314 15.5187 27.2689 13.6959 31.0855 12.9716C30.4996 9.57001 28.6849 6.64855 26.1541 4.60597C26.3901 4.79314 26.6179 4.98845 26.8376 5.19189C23.7778 7.19378 21.2877 10.1234 19.831 13.7772V13.7772Z" fill="#5FCEFF"/>
<path d="M18.359 24.5272C18.359 24.5272 18.3427 24.5109 18.3346 24.5028C18.0416 26.1059 17.5534 27.6521 16.9023 29.1006C17.5371 29.1251 18.18 29.1088 18.831 29.0518C26.1713 28.3438 31.6073 21.9964 31.2655 14.7131C27.8314 15.3885 24.5518 17.0486 21.8827 19.6934C20.4097 21.1419 19.2379 22.7857 18.359 24.5272V24.5272Z" fill="#DF3000"/>
<path d="M17.6902 14.5829C17.8448 14.0946 18.0157 13.6063 18.211 13.1262C19.7327 9.31774 22.2799 6.22539 25.4129 4.04447C25.657 4.21536 25.9012 4.39439 26.129 4.58156C23.4273 2.40878 19.9036 1.24508 16.1765 1.61128C13.426 1.87982 10.9439 2.93773 8.92578 4.54087C9.16178 4.3537 9.40591 4.16654 9.65818 3.99564C13.4016 6.49394 16.266 10.2048 17.682 14.5829H17.6902Z" fill="#5FCEFF"/>
<path d="M16.8199 18.8552C16.2096 13.0611 12.9138 8.07266 8.21828 5.14307C8.32407 5.04541 8.42987 4.94776 8.54379 4.85825C5.72813 7.27516 3.92154 10.7907 3.73438 14.6643C3.73438 14.6073 3.73437 14.5503 3.74251 14.4852C8.5031 14.3632 13.1335 15.9419 16.8199 18.8552V18.8552Z" fill="#FFD63F"/>
<path d="M31.2168 14.0051C31.2331 14.2004 31.2493 14.3957 31.2575 14.591C31.2493 14.3957 31.2331 14.2004 31.2168 14.0051Z" fill="white"/>
<path d="M16.9013 21.2233C13.3695 17.9194 8.63331 16.0965 3.75879 16.2348C3.75065 16.1046 3.74251 15.9663 3.73438 15.8361C3.74251 16.1128 3.75879 16.3895 3.79134 16.6661C4.40167 22.9566 9.14599 27.8474 15.0703 28.9053C16.2096 26.5698 16.8687 23.9576 16.9257 21.1989C16.9257 21.207 16.9094 21.2152 16.9013 21.2233Z" fill="#FFD63F"/>
<path d="M15.5827 28.9786C15.5827 28.9786 15.5094 28.9704 15.4688 28.9623C15.5094 28.9623 15.542 28.9704 15.5827 28.9786Z" fill="black"/>
<path d="M15.0703 28.8972C15.1517 28.9135 15.2249 28.9216 15.3063 28.9379C15.2249 28.9216 15.1517 28.9135 15.0703 28.8972Z" fill="black"/>
<path d="M26.1289 4.58971C26.1289 4.58971 26.1455 4.598 26.1455 4.6063C26.1455 4.6063 26.1289 4.598 26.1289 4.58971Z" fill="black"/>
<path d="M8.91016 4.55747C8.91016 4.55747 8.92675 4.54917 8.92675 4.54088C8.92675 4.54088 8.91016 4.54917 8.91016 4.55747Z" fill="black"/>
<path d="M31.0781 12.9716C31.0944 13.0693 31.1107 13.1669 31.127 13.2564C31.1107 13.1588 31.0944 13.0611 31.0781 12.9716Z" fill="black"/>
<path d="M31.1426 13.3703C31.1507 13.4436 31.1589 13.5087 31.1751 13.5819C31.167 13.5087 31.1589 13.4436 31.1426 13.3703Z" fill="black"/>
<path d="M31.1836 13.6877C31.1999 13.7935 31.208 13.8993 31.2161 14.0051C31.208 13.8993 31.1917 13.7935 31.1836 13.6877Z" fill="black"/>
<path d="M8.54492 4.85824C8.54492 4.85824 8.57747 4.82569 8.60189 4.80942C8.58561 4.82569 8.56934 4.84197 8.54492 4.85824Z" fill="black"/>
<path d="M31.2159 14.0051C31.2078 13.8993 31.1915 13.7935 31.1834 13.6877C31.1834 13.6552 31.1752 13.6226 31.1671 13.5819C31.159 13.5087 31.1508 13.4436 31.1346 13.3704C31.1346 13.3297 31.1264 13.2971 31.1183 13.2564C31.102 13.1588 31.0857 13.0611 31.0694 12.9716C27.261 13.6959 23.6153 15.5187 20.645 18.4483C19.9126 19.1726 19.2534 19.9294 18.6594 20.7269V20.6048C18.6594 20.0433 18.6268 19.49 18.5698 18.9447C18.7326 17.2114 19.1395 15.478 19.8149 13.7772C21.2716 10.1234 23.7617 7.20193 26.8215 5.1919C26.6018 4.98845 26.374 4.79315 26.138 4.60598C26.138 4.60598 26.1217 4.59784 26.1217 4.5897C25.8857 4.40253 25.6497 4.2235 25.4056 4.05261C22.2725 6.23353 19.7254 9.32588 18.2036 13.1344C18.0083 13.6145 17.8374 14.1027 17.6828 14.591C16.2669 10.221 13.4024 6.50208 9.65899 4.00378C9.40672 4.17468 9.16259 4.36185 8.92659 4.54901C8.92659 4.54901 8.91032 4.55715 8.91032 4.56529C8.80453 4.64667 8.69874 4.73618 8.60108 4.81756C8.58481 4.83384 8.56853 4.85011 8.54412 4.86639C8.43833 4.96404 8.3244 5.05356 8.21861 5.15121C12.9141 8.0808 16.2018 13.0611 16.8202 18.8633C13.142 15.95 8.51157 14.3713 3.74284 14.4934C3.74284 14.5503 3.74284 14.6073 3.7347 14.6724C3.7347 14.7049 3.7347 14.7375 3.7347 14.77C3.7347 14.8677 3.7347 14.9654 3.72656 15.063C3.72656 15.0956 3.72656 15.1281 3.72656 15.1607C3.72656 15.2176 3.72656 15.2827 3.72656 15.3397C3.72656 15.3722 3.72656 15.4048 3.72656 15.4292C3.72656 15.535 3.72656 15.6326 3.72656 15.7384C3.72656 15.771 3.72656 15.8035 3.72656 15.8361C3.72656 15.9663 3.7347 16.1046 3.75098 16.2348C8.63363 16.0965 13.3698 17.9194 16.8935 21.2233C16.8935 21.2152 16.9097 21.207 16.9179 21.1989C16.8609 23.9576 16.2018 26.5698 15.0625 28.9053C15.1438 28.9216 15.2171 28.9298 15.2985 28.946C15.3554 28.9542 15.4043 28.9623 15.4612 28.9704C15.5019 28.9704 15.5345 28.9786 15.5751 28.9867C15.7786 29.0111 15.9739 29.0355 16.1773 29.06C16.1936 29.06 16.2018 29.06 16.218 29.06C16.4378 29.0762 16.6656 29.0925 16.8935 29.1088C17.5445 27.6603 18.0328 26.1141 18.3257 24.511C18.3338 24.511 18.342 24.5272 18.3501 24.5354C19.229 22.7857 20.4008 21.1501 21.8738 19.7015C24.5511 17.0568 27.8306 15.4048 31.2566 14.7212C31.2566 14.6805 31.2566 14.6398 31.2566 14.5992C31.2485 14.4038 31.2322 14.2085 31.2159 14.0132V14.0051Z" fill="black"/>
<path d="M17.9922 29.3611L33.2098 25.9269V23.2008L17.9922 26.6349V29.3611Z" fill="white"/>
<path d="M17.0164 29.3611L1.79883 25.9269V23.2008L17.0164 26.6349V29.3611Z" fill="white"/>
<path d="M19.791 34.0647L35.0086 30.6306V25.4875L19.791 28.9216V34.0647Z" fill="black"/>
<path d="M15.2176 34.0647L0 30.6306V25.4875L15.2176 28.9216V34.0647Z" fill="black"/>
<path d="M15.9258 29.3773V26.8546C15.9258 26.2606 16.4059 25.7804 17 25.7804H18.009C18.6031 25.7804 19.0832 26.2606 19.0832 26.8546V29.3773" fill="black"/>
<path d="M16.4375 28.9379V27.0092C16.4375 26.6105 16.763 26.285 17.1618 26.285H17.8453C18.2441 26.285 18.5696 26.6105 18.5696 27.0092V28.9379" fill="white"/>
<path d="M19.8153 28.9216H15.2012V34.0647H19.8153V28.9216Z" fill="black"/>
<path d="M17.9922 28.9379L33.2098 25.5038V25.0155L17.9922 28.4496V28.9379Z" fill="black"/>
<path d="M17.9922 28.0346L33.2098 24.6005V24.1122L17.9922 27.5382V28.0346Z" fill="black"/>
<path d="M17.9922 27.1232L33.2098 23.689V23.2008L17.9922 26.6349V27.1232Z" fill="black"/>
<path d="M17.0164 28.9379L1.79883 25.5038V25.0155L17.0164 28.4496V28.9379Z" fill="black"/>
<path d="M17.0164 28.0346L1.79883 24.6005V24.1122L17.0164 27.5382V28.0346Z" fill="black"/>
<path d="M17.0164 27.1232L1.79883 23.689V23.2008L17.0164 26.6349V27.1232Z" fill="black"/>
<path d="M15.9833 32.7952H15.1939L14.73 32.0872H12.9723L12.5166 32.7952H11.7109L13.5419 29.947H14.1523L15.9833 32.7952ZM14.4371 31.6234L13.843 30.6794L13.2652 31.6234H14.4371Z" fill="white"/>
<path d="M19.702 32.7952H18.7174C18.636 32.7138 18.5709 32.5592 18.5221 32.3313C18.4895 32.1604 18.457 31.9977 18.4244 31.8268C18.4 31.7454 18.3512 31.6885 18.2698 31.664C18.2291 31.6478 18.1396 31.6478 17.985 31.6478H17.0329V32.8033H16.3086V29.9551H17.8466C18.2861 29.9551 18.636 30.0202 18.8883 30.1586C19.1649 30.305 19.3033 30.5248 19.3033 30.8177C19.3033 31.0618 19.1405 31.2571 18.815 31.4036C19.0185 31.5013 19.1405 31.6559 19.1894 31.8675C19.2056 31.9895 19.2463 32.1686 19.2952 32.4046C19.3196 32.5104 19.4498 32.6487 19.6939 32.8033L19.702 32.7952ZM18.5465 30.8014C18.5465 30.5492 18.2942 30.419 17.7978 30.419H17.0329V31.1676H17.7002C17.9199 31.1676 18.107 31.1432 18.2535 31.0944C18.4488 31.0293 18.5465 30.9316 18.5465 30.8014V30.8014Z" fill="white"/>
<path d="M23.2756 30.4271H21.9573V32.8033H21.2168V30.4271H19.8984V29.947H23.2756V30.4271Z" fill="white"/>
</g>
<defs>
<clipPath id="clip0_786_23658">
<rect width="155" height="34.0647" fill="white"/>
</clipPath>
</defs>
</svg>
