<?xml version="1.0" encoding="UTF-8"?><svg id="_圖層_1" xmlns="http://www.w3.org/2000/svg" viewBox="0 0 600 600"><defs><style>.cls-1{fill:#231815;}</style></defs><path class="cls-1" d="M294.09,150.38l31.1,95.72c2.89,8.89,11.17,14.91,20.52,14.91h100.64c20.9,0,29.59,26.74,12.68,39.03l-81.42,59.16c-7.56,5.49-10.73,15.23-7.84,24.12l31.1,95.72c6.46,19.88-16.29,36.41-33.2,24.12l-81.42-59.16c-7.56-5.49-17.8-5.49-25.36,0l-81.42,59.16c-16.91,12.28-39.66-4.24-33.2-24.12l31.1-95.72c2.89-8.89-.28-18.63-7.84-24.12l-81.42-59.16c-16.91-12.28-8.22-39.03,12.68-39.03h100.64c9.35,0,17.63-6.02,20.52-14.91l31.1-95.72c6.46-19.88,34.58-19.88,41.04,0Z"/></svg>